<svg xmlns="http://www.w3.org/2000/svg" width="64" height="64" viewBox="0 0 64 64">
  <defs>
    <linearGradient id="bg" x1="8" y1="6" x2="58" y2="60" gradientUnits="userSpaceOnUse">
      <stop offset="0" stop-color="#3c8bff" />
      <stop offset="1" stop-color="#0059ff" />
    </linearGradient>
    <linearGradient id="ring" x1="16" y1="16" x2="50" y2="50" gradientUnits="userSpaceOnUse">
      <stop offset="0" stop-color="#eef5ff" />
      <stop offset="1" stop-color="#cfe1ff" />
    </linearGradient>
  </defs>
  <rect x="4" y="4" width="56" height="56" rx="16" fill="url(#bg)" />
  <path
    d="M24.8 39.2a8.5 8.5 0 0 1 0-12l6.5-6.4a8.5 8.5 0 0 1 12 0m-4.1 4.1a2.7 2.7 0 0 1 3.8 0 2.7 2.7 0 0 1 0 3.8L36.5 35a2.7 2.7 0 0 1-3.8 0m-7 4.1a2.7 2.7 0 0 1-3.8 0 2.7 2.7 0 0 1 0-3.8l6.5-6.4a2.7 2.7 0 0 1 3.8 0"
    fill="none"
    stroke="url(#ring)"
    stroke-width="3.5"
    stroke-linecap="round"
    stroke-linejoin="round"
  />
</svg>
